<svg t="1501063515710" class="icon" style="" viewBox="0 0 1024 1024" version="1.1" xmlns="http://www.w3.org/2000/svg" p-id="1002" xmlns:xlink="http://www.w3.org/1999/xlink" width="200" height="200"><defs><style type="text/css"></style></defs><path d="M846.962 256.263c43.691 54.176 71.652 117.091 82.139 185.831 31.457 205.055-71.070 384.478-263.309 464.868-75.73 31.457-154.373 36.7-233.599 20.389-53.594-10.485-84.468-46.604-87.381-101.362-5.243-92.042 23.301-177.676 57.089-262.144 31.457-79.226 75.148-150.879 135.15-212.046 14.563-15.146 32.039-28.545 50.098-39.030 18.059-9.903 40.195-13.981 55.924 4.66 15.729 18.641 11.069 40.195-3.495 55.924-19.807 20.972-41.943 40.195-65.245 57.089-17.476 13.398-37.866 22.719-60.002 35.535 8.156 11.069 14.563 21.554 22.137 31.457 27.962 37.866 22.719 74.565-18.059 98.45-33.788 19.807-69.905 34.953-104.858 53.594 64.662-11.651 128.741-23.884 184.083-62.914 36.7-25.632 36.117-48.351 2.331-95.537 21.554-10.485 44.273-18.641 63.498-32.039 19.807-13.398 39.613-29.71 52.429-48.933 39.030-57.671 5.825-121.751-63.498-128.741-83.886-8.738-142.723 34.953-195.734 89.712-78.643 81.556-113.596 183.501-131.654 292.436-3.495 22.137-5.825 43.691-9.903 75.73-11.651-22.137-20.389-37.283-26.797-53.011-42.526-103.11-52.429-207.968-18.641-315.155 17.476-55.342 52.429-96.119 110.683-114.178 8.738-2.913 16.894-11.651 22.137-20.389 36.7-57.089 72.818-73.983 138.645-64.080 8.738 1.165 19.223-5.243 27.962-9.321 36.117-15.146 70.487-39.613 108.353-45.438 94.955-13.398 150.295 51.846 126.412 145.053-8.156 30.875-27.379 59.42-40.778 89.129-3.495 8.156-8.156 20.972-4.66 25.632 28.545 37.866 13.981 70.487-11.651 100.197-16.311 18.641-20.972 34.953-13.981 59.42 9.321 30.875-5.243 58.836-30.875 75.73-26.797 17.476-58.254 29.71-87.964 43.108-61.749 27.962-124.081 54.176-184.666 83.886-27.962 13.398-41.943 39.030-42.526 71.652-1.165 47.769 17.476 76.896 65.245 85.051 113.596 20.389 216.706-8.156 304.67-80.974 151.461-125.247 186.996-323.893 93.789-496.909-9.321-17.476-11.651-39.613-17.476-59.42 5.243 0 9.903-1.747 13.981-2.913zM322.674 889.487c-178.841-83.303-284.863-308.748-207.385-519.045 78.643-213.211 297.097-311.66 478.85-267.969-20.389 27.962-50.098 23.301-78.643 23.301-163.111-1.747-306.417 94.372-365.837 244.668-65.827 167.189-10.485 351.856 135.732 461.374 17.476 13.398 29.127 34.37 43.691 51.846-2.331 1.747-4.66 3.495-6.407 5.825z" p-id="1003" fill="#ffffff"></path></svg>