<?xml version="1.0" standalone="no"?><!DOCTYPE svg PUBLIC "-//W3C//DTD SVG 1.1//EN" "http://www.w3.org/Graphics/SVG/1.1/DTD/svg11.dtd"><svg t="1500652442167" class="icon" style="" viewBox="0 0 3413 1024" version="1.1" xmlns="http://www.w3.org/2000/svg" p-id="16282" xmlns:xlink="http://www.w3.org/1999/xlink" width="666.6015625" height="200"><defs><style type="text/css"></style></defs><path d="M207.644444 472.177778c-11.377778-11.377778-19.911111-19.911111-31.288888-22.755556-11.377778-5.688889-22.755556-8.533333-34.133334-8.533333-11.377778 0-22.755556 0-34.133333 2.844444-11.377778 2.844444-19.911111 5.688889-25.6 11.377778l-19.911111 19.911111v-108.088889c0-8.533333-2.844444-17.066667-5.688889-28.444444s-8.533333-19.911111-14.222222-25.6c-5.688889-5.688889-8.533333-8.533333-14.222223-8.533333-2.844444 0-8.533333 2.844444-14.222222 11.377777-5.688889 5.688889-8.533333 14.222222-11.377778 25.6-2.844444 8.533333-2.844444 14.222222-2.844444 22.755556v301.511111c0 5.688889 5.688889 14.222222 11.377778 25.6 5.688889 8.533333 11.377778 14.222222 14.222222 14.222222 2.844444 0 8.533333-2.844444 14.222222-8.533333 5.688889-5.688889 8.533333-11.377778 11.377778-17.066667 2.844444-5.688889 2.844444-11.377778 5.688889-19.911111l11.377778 14.222222c2.844444 5.688889 11.377778 11.377778 19.911111 14.222223 11.377778 5.688889 19.911111 5.688889 34.133333 5.688888 17.066667 0 34.133333-2.844444 48.355556-8.533333 14.222222-5.688889 25.6-17.066667 34.133333-28.444444 8.533333-11.377778 17.066667-25.6 19.911111-42.666667 5.688889-19.911111 8.533333-39.822222 5.688889-56.888889 0-17.066667-2.844444-34.133333-8.533333-48.355555 2.844444-14.222222-2.844444-25.6-14.222223-36.977778z m-34.133333 116.622222c-2.844444 14.222222-8.533333 25.6-14.222222 34.133333-5.688889 8.533333-17.066667 11.377778-31.288889 11.377778l-28.444444-2.844444c-8.533333 0-14.222222 0-17.066667 2.844444-5.688889 2.844444-11.377778 5.688889-17.066667 11.377778V483.555556l17.066667 11.377777c5.688889 2.844444 14.222222 5.688889 28.444444 5.688889h25.6c11.377778 2.844444 19.911111 5.688889 28.444445 11.377778 5.688889 5.688889 11.377778 17.066667 14.222222 31.288889 0 17.066667-2.844444 31.288889-5.688889 45.511111zM475.022222 463.644444c-2.844444-5.688889-8.533333-11.377778-17.066666-17.066666-8.533333-5.688889-17.066667-11.377778-25.6-14.222222-8.533333-2.844444-17.066667-2.844444-25.6-2.844445-8.533333 0-17.066667 2.844444-25.6 5.688889-5.688889 2.844444-11.377778 8.533333-17.066667 11.377778-2.844444 5.688889-8.533333 11.377778-11.377778 17.066666l-5.688889-11.377777c0-2.844444-5.688889-5.688889-11.377778-14.222223-5.688889-5.688889-8.533333-11.377778-11.377777-11.377777-2.844444 0-8.533333 2.844444-11.377778 8.533333-5.688889 5.688889-8.533333 11.377778-11.377778 19.911111s-5.688889 14.222222-5.688889 19.911111V640c0 8.533333 2.844444 17.066667 5.688889 25.6 2.844444 8.533333 8.533333 14.222222 14.222222 19.911111 5.688889 5.688889 11.377778 8.533333 14.222223 8.533333 2.844444 0 8.533333-2.844444 14.222222-8.533333 5.688889-5.688889 8.533333-14.222222 11.377778-19.911111 2.844444-8.533333 5.688889-17.066667 5.688888-25.6v-153.6l19.911112-8.533333c5.688889-2.844444 11.377778-2.844444 19.911111-2.844445 8.533333 0 19.911111 2.844444 25.6 11.377778l14.222222 11.377778c5.688889 5.688889 14.222222 8.533333 19.911111 8.533333h14.222222c8.533333 0 11.377778 0 14.222222-2.844444 2.844444 0 2.844444-8.533333 0-19.911111-8.533333-5.688889-11.377778-14.222222-14.222222-19.911112zM642.844444 310.044444c-5.688889-2.844444-11.377778-5.688889-19.911111-5.688888-5.688889 0-14.222222 2.844444-19.911111 5.688888-5.688889 2.844444-11.377778 8.533333-14.222222 14.222223-2.844444 5.688889-5.688889 14.222222-5.688889 19.911111 0 8.533333 2.844444 14.222222 5.688889 19.911111 2.844444 5.688889 8.533333 11.377778 14.222222 14.222222 5.688889 2.844444 11.377778 5.688889 19.911111 5.688889 5.688889 0 14.222222-2.844444 19.911111-5.688889 5.688889-2.844444 11.377778-8.533333 14.222223-14.222222 2.844444-5.688889 5.688889-11.377778 5.688889-19.911111 0-8.533333-2.844444-14.222222-5.688889-19.911111-2.844444-5.688889-8.533333-8.533333-14.222223-14.222223zM654.222222 494.933333c-2.844444-11.377778-5.688889-22.755556-8.533333-31.288889-2.844444-8.533333-5.688889-17.066667-11.377778-22.755555-5.688889-5.688889-8.533333-8.533333-11.377778-8.533333-2.844444 0-8.533333 2.844444-14.222222 11.377777-5.688889 5.688889-8.533333 14.222222-11.377778 22.755556-2.844444 8.533333-5.688889 19.911111-5.688889 31.288889s-2.844444 31.288889-2.844444 59.733333v56.888889c0 14.222222 2.844444 28.444444 5.688889 39.822222 2.844444 14.222222 8.533333 25.6 14.222222 34.133334 5.688889 8.533333 11.377778 14.222222 14.222222 14.222222 5.688889 0 11.377778-5.688889 17.066667-14.222222 5.688889-8.533333 11.377778-22.755556 14.222222-36.977778 2.844444-14.222222 5.688889-31.288889 5.688889-48.355556v-56.888889c-2.844444-22.755556-2.844444-39.822222-5.688889-51.2zM964.266667 585.955556c-2.844444 0-8.533333 5.688889-14.222223 14.222222s-11.377778 17.066667-17.066666 22.755555c-5.688889 5.688889-14.222222 11.377778-22.755556 14.222223-8.533333 2.844444-17.066667 5.688889-25.6 5.688888-11.377778 0-19.911111-2.844444-31.288889-5.688888-11.377778-2.844444-19.911111-8.533333-25.6-17.066667-5.688889-8.533333-11.377778-17.066667-14.222222-25.6-2.844444-8.533333-2.844444-19.911111-2.844444-28.444445 0-11.377778 2.844444-19.911111 8.533333-31.288888 5.688889-11.377778 11.377778-19.911111 19.911111-25.6 8.533333-5.688889 17.066667-11.377778 28.444445-11.377778 8.533333-2.844444 17.066667 0 25.6 0 8.533333 2.844444 14.222222 5.688889 25.6 11.377778l25.6 14.222222c8.533333 5.688889 14.222222 5.688889 19.911111 5.688889 2.844444-2.844444 5.688889-8.533333 5.688889-17.066667 0-11.377778 0-19.911111-2.844445-28.444444-2.844444-8.533333-8.533333-17.066667-17.066667-22.755556-8.533333-8.533333-19.911111-11.377778-31.288888-17.066667-11.377778-2.844444-25.6-5.688889-36.977778-5.688889-19.911111 0-34.133333 2.844444-48.355556 8.533334-14.222222 5.688889-25.6 14.222222-36.977778 25.6s-22.755556 22.755556-28.444444 36.977778c-5.688889 14.222222-11.377778 28.444444-14.222222 45.511111-2.844444 25.6 0 48.355556 5.688889 65.422222 5.688889 17.066667 17.066667 31.288889 28.444444 45.511111s25.6 22.755556 39.822222 28.444444c14.222222 5.688889 31.288889 8.533333 51.2 8.533334 11.377778 0 25.6 0 36.977778-2.844445 14.222222-2.844444 25.6-8.533333 36.977778-14.222222 11.377778-8.533333 19.911111-14.222222 25.6-22.755555 5.688889-11.377778 8.533333-19.911111 8.533333-31.288889 0-11.377778-2.844444-19.911111-5.688889-28.444445-11.377778-14.222222-14.222222-17.066667-17.066666-17.066666zM1223.111111 614.4c-8.533333-11.377778-17.066667-19.911111-25.6-28.444444-8.533333-8.533333-14.222222-14.222222-19.911111-17.066667-5.688889-2.844444-8.533333-2.844444-14.222222-5.688889-5.688889 0-11.377778-2.844444-17.066667-2.844444l28.444445-22.755556c5.688889-2.844444 17.066667-14.222222 31.288888-31.288889 14.222222-17.066667 25.6-28.444444 28.444445-34.133333 2.844444-5.688889 5.688889-14.222222 5.688889-25.6V426.666667c-2.844444-2.844444-8.533333-2.844444-19.911111 0-11.377778 2.844444-19.911111 5.688889-25.6 8.533333-5.688889 2.844444-14.222222 8.533333-22.755556 17.066667-8.533333 8.533333-19.911111 17.066667-28.444444 28.444444-8.533333 11.377778-17.066667 19.911111-25.6 28.444445-8.533333 8.533333-11.377778 17.066667-14.222223 22.755555-2.844444 5.688889-5.688889 14.222222-5.688888 22.755556v-199.111111c0-8.533333-2.844444-19.911111-5.688889-28.444445-2.844444-8.533333-8.533333-17.066667-14.222223-22.755555-5.688889-5.688889-11.377778-8.533333-14.222222-8.533334-2.844444 0-8.533333 2.844444-14.222222 11.377778-5.688889 8.533333-11.377778 14.222222-14.222222 22.755556-2.844444 5.688889-2.844444 17.066667-2.844445 28.444444v275.911111c0 11.377778 0 19.911111 2.844445 28.444445 2.844444 8.533333 5.688889 17.066667 11.377778 25.6 5.688889 8.533333 11.377778 11.377778 14.222222 11.377777 5.688889 0 11.377778-2.844444 17.066666-11.377777 5.688889-8.533333 11.377778-17.066667 14.222223-25.6 2.844444-8.533333 2.844444-17.066667 2.844444-25.6v-62.577778h14.222222c5.688889 0 11.377778 0 17.066667-2.844445 5.688889-2.844444 11.377778-5.688889 19.911111-8.533333v14.222222c0 5.688889 0 11.377778 2.844445 19.911111 2.844444 8.533333 5.688889 17.066667 11.377777 28.444445s11.377778 19.911111 17.066667 28.444444c5.688889 8.533333 14.222222 17.066667 19.911111 22.755556s17.066667 11.377778 25.6 14.222222c14.222222 5.688889 22.755556 8.533333 25.6 2.844444 2.844444-2.844444 2.844444-11.377778 2.844445-19.911111 0-11.377778-2.844444-22.755556-8.533334-31.288889-2.844444-5.688889-11.377778-17.066667-19.911111-28.444444zM1527.466667 585.955556c-2.844444 0-8.533333 5.688889-14.222223 14.222222s-11.377778 17.066667-17.066666 22.755555c-5.688889 5.688889-14.222222 11.377778-22.755556 14.222223-8.533333 2.844444-17.066667 5.688889-25.6 5.688888-11.377778 0-19.911111-2.844444-31.288889-5.688888-11.377778-2.844444-19.911111-8.533333-25.6-17.066667-5.688889-8.533333-11.377778-17.066667-14.222222-25.6-2.844444-8.533333-2.844444-19.911111-2.844444-28.444445 0-11.377778 2.844444-19.911111 8.533333-31.288888 5.688889-11.377778 11.377778-19.911111 19.911111-25.6 8.533333-5.688889 17.066667-11.377778 28.444445-11.377778 8.533333-2.844444 17.066667 0 25.6 0 8.533333 2.844444 14.222222 5.688889 25.6 11.377778l25.6 14.222222c8.533333 5.688889 14.222222 5.688889 19.911111 5.688889 2.844444-2.844444 5.688889-8.533333 5.688889-17.066667 0-11.377778 0-19.911111-2.844445-28.444444-2.844444-8.533333-8.533333-17.066667-17.066667-22.755556-8.533333-8.533333-19.911111-11.377778-31.288888-17.066667-11.377778-2.844444-25.6-5.688889-36.977778-5.688889-19.911111 0-34.133333 2.844444-48.355556 8.533334-14.222222 5.688889-25.6 14.222222-36.977778 25.6s-22.755556 22.755556-28.444444 36.977778c-5.688889 14.222222-11.377778 28.444444-14.222222 45.511111-2.844444 25.6 0 48.355556 5.688889 65.422222 5.688889 17.066667 17.066667 31.288889 28.444444 45.511111s25.6 22.755556 39.822222 28.444444c14.222222 5.688889 31.288889 8.533333 51.2 8.533334 11.377778 0 25.6 0 36.977778-2.844445s25.6-8.533333 36.977778-14.222222c11.377778-8.533333 19.911111-14.222222 25.6-22.755555 5.688889-11.377778 8.533333-19.911111 8.533333-31.288889 0-11.377778-2.844444-19.911111-5.688889-28.444445-11.377778-14.222222-14.222222-17.066667-17.066666-17.066666zM1820.444444 625.777778c-2.844444-11.377778-5.688889-19.911111-5.688888-25.6 0-5.688889-2.844444-17.066667-2.844445-31.288889v-42.666667c0-17.066667 0-28.444444-2.844444-39.822222-2.844444-11.377778-5.688889-19.911111-11.377778-25.6-5.688889-8.533333-14.222222-14.222222-22.755556-19.911111-11.377778-5.688889-22.755556-8.533333-34.133333-11.377778-14.222222-2.844444-25.6-2.844444-39.822222-2.844444-14.222222 0-28.444444 2.844444-39.822222 5.688889-11.377778 2.844444-22.755556 8.533333-31.288889 14.222222-8.533333 5.688889-14.222222 11.377778-19.911111 19.911111-5.688889 8.533333-8.533333 17.066667-8.533334 28.444444 0 5.688889 0 14.222222 2.844445 19.911111 2.844444 5.688889 5.688889 11.377778 8.533333 14.222223 2.844444 2.844444 11.377778 0 19.911111-5.688889s17.066667-8.533333 19.911111-11.377778l17.066667-14.222222c5.688889-5.688889 11.377778-8.533333 19.911111-8.533334 5.688889-2.844444 14.222222-2.844444 19.911111-2.844444 8.533333 0 14.222222 2.844444 19.911111 5.688889 5.688889 2.844444 11.377778 5.688889 11.377778 11.377778 2.844444 2.844444 2.844444 8.533333 5.688889 14.222222v28.444444l-11.377778-11.377777c-5.688889-2.844444-14.222222-5.688889-22.755555-5.688889-5.688889 0-17.066667 0-28.444445 2.844444s-22.755556 5.688889-34.133333 11.377778c-11.377778 2.844444-22.755556 8.533333-31.288889 14.222222-8.533333 5.688889-17.066667 14.222222-22.755556 22.755556-5.688889 8.533333-8.533333 19.911111-11.377777 34.133333-2.844444 14.222222 0 28.444444 5.688888 39.822222 5.688889 11.377778 14.222222 22.755556 22.755556 28.444445 11.377778 8.533333 25.6 11.377778 42.666667 14.222222 19.911111 2.844444 36.977778 0 51.2-5.688889 11.377778-5.688889 22.755556-11.377778 25.6-17.066667 5.688889-5.688889 11.377778-14.222222 17.066666-22.755555l8.533334 14.222222c2.844444 5.688889 5.688889 8.533333 11.377777 14.222222s14.222222 8.533333 22.755556 11.377778c11.377778 2.844444 17.066667 2.844444 19.911111 0 2.844444-2.844444 5.688889-8.533333 8.533333-17.066667 2.844444-8.533333 2.844444-17.066667 0-22.755555 2.844444-5.688889 2.844444-14.222222 0-25.6z m-88.177777 14.222222c-5.688889 0-11.377778-2.844444-19.911111 0-5.688889 0-11.377778 2.844444-22.755556 2.844444-8.533333 2.844444-17.066667 2.844444-22.755556 2.844445-5.688889 0-11.377778-2.844444-14.222222-5.688889-2.844444-5.688889-2.844444-11.377778-2.844444-17.066667 0-5.688889 2.844444-11.377778 5.688889-14.222222 2.844444-2.844444 8.533333-8.533333 17.066666-11.377778 8.533333-2.844444 17.066667-8.533333 28.444445-11.377777s17.066667-5.688889 19.911111-8.533334 8.533333-5.688889 11.377778-8.533333c2.844444-2.844444 8.533333-8.533333 14.222222-19.911111v62.577778c0 8.533333 0 19.911111 2.844444 28.444444h-17.066666zM2073.6 594.488889c-2.844444 0-8.533333 2.844444-14.222222 8.533333-5.688889 5.688889-11.377778 11.377778-14.222222 19.911111-5.688889 8.533333-8.533333 11.377778-11.377778 14.222223-2.844444 2.844444-8.533333 5.688889-14.222222 5.688888s-11.377778 0-17.066667-2.844444c-5.688889-2.844444-8.533333-5.688889-8.533333-11.377778 0-2.844444-2.844444-8.533333-2.844445-19.911111v-128h25.6c5.688889 0 11.377778 0 19.911111-2.844444 5.688889-2.844444 11.377778-5.688889 17.066667-11.377778 5.688889-5.688889 8.533333-8.533333 8.533333-11.377778 0-2.844444-2.844444-8.533333-8.533333-14.222222-5.688889-5.688889-11.377778-11.377778-19.911111-14.222222-5.688889-2.844444-11.377778-2.844444-17.066667-2.844445H1991.111111v-22.755555c0-11.377778 0-19.911111-2.844444-28.444445-2.844444-8.533333-5.688889-17.066667-14.222223-22.755555-5.688889-5.688889-11.377778-11.377778-17.066666-11.377778-2.844444 0-8.533333 2.844444-17.066667 11.377778-5.688889 8.533333-11.377778 17.066667-14.222222 22.755555s-2.844444 17.066667-2.844445 25.6v22.755556h-14.222222c-11.377778 0-19.911111 2.844444-25.6 2.844444-5.688889 2.844444-11.377778 5.688889-17.066666 11.377778-5.688889 5.688889-8.533333 8.533333-8.533334 11.377778 0 2.844444 2.844444 5.688889 5.688889 11.377778s11.377778 8.533333 19.911111 11.377777c8.533333 2.844444 19.911111 5.688889 28.444445 5.688889h11.377777v147.911111c0 11.377778 0 22.755556 2.844445 31.288889 2.844444 8.533333 8.533333 17.066667 14.222222 22.755556 5.688889 5.688889 14.222222 11.377778 25.6 14.222222 11.377778 2.844444 19.911111 5.688889 34.133333 5.688889 17.066667 0 31.288889 0 45.511112-5.688889 11.377778-5.688889 22.755556-11.377778 31.288888-22.755556 8.533333-8.533333 11.377778-19.911111 14.222223-34.133333 0-8.533333 0-17.066667-5.688889-28.444444-5.688889-5.688889-8.533333-11.377778-11.377778-11.377778zM2267.022222 642.844444c-5.688889-5.688889-11.377778-5.688889-14.222222-5.688888-5.688889 0-8.533333 2.844444-17.066667 8.533333-5.688889 5.688889-11.377778 11.377778-17.066666 19.911111-5.688889 5.688889-8.533333 11.377778-8.533334 14.222222 0 2.844444 2.844444 11.377778 5.688889 17.066667 5.688889 8.533333 11.377778 14.222222 19.911111 19.911111 8.533333 5.688889 14.222222 8.533333 17.066667 8.533333 2.844444 0 8.533333-2.844444 17.066667-5.688889 8.533333-5.688889 14.222222-11.377778 19.911111-17.066666 5.688889-8.533333 8.533333-14.222222 8.533333-19.911111 0-5.688889-2.844444-11.377778-11.377778-19.911111l-19.911111-19.911112zM2642.488889 585.955556c-2.844444 0-8.533333 5.688889-14.222222 14.222222s-11.377778 17.066667-17.066667 22.755555c-5.688889 5.688889-14.222222 11.377778-22.755556 14.222223-8.533333 2.844444-17.066667 5.688889-25.6 5.688888-11.377778 0-19.911111-2.844444-31.288888-5.688888-11.377778-2.844444-19.911111-8.533333-25.6-17.066667-5.688889-8.533333-11.377778-17.066667-14.222223-25.6-2.844444-8.533333-2.844444-19.911111-2.844444-28.444445 0-11.377778 2.844444-19.911111 8.533333-31.288888 5.688889-11.377778 11.377778-19.911111 19.911111-25.6 8.533333-5.688889 17.066667-11.377778 28.444445-11.377778 8.533333-2.844444 17.066667 0 25.6 0 8.533333 2.844444 14.222222 5.688889 25.6 11.377778l25.6 14.222222c8.533333 5.688889 14.222222 5.688889 19.911111 5.688889 2.844444-2.844444 5.688889-8.533333 5.688889-17.066667 0-11.377778 0-19.911111-2.844445-28.444444-2.844444-8.533333-8.533333-17.066667-17.066666-22.755556s-19.911111-11.377778-31.288889-17.066667c-11.377778-2.844444-25.6-5.688889-36.977778-5.688889-19.911111 0-34.133333 2.844444-48.355556 8.533334-14.222222 5.688889-25.6 14.222222-36.977777 25.6s-22.755556 22.755556-28.444445 36.977778c-5.688889 14.222222-11.377778 28.444444-14.222222 45.511111-2.844444 25.6 0 48.355556 5.688889 65.422222 5.688889 17.066667 17.066667 31.288889 28.444444 45.511111s25.6 22.755556 39.822223 28.444444c14.222222 5.688889 31.288889 8.533333 51.2 8.533334 11.377778 0 25.6 0 36.977777-2.844445 14.222222-2.844444 25.6-8.533333 36.977778-14.222222 11.377778-8.533333 19.911111-14.222222 25.6-22.755555 5.688889-11.377778 8.533333-19.911111 8.533333-31.288889 0-11.377778-2.844444-19.911111-5.688888-28.444445-11.377778-14.222222-14.222222-17.066667-17.066667-17.066666zM2790.4 318.577778c-5.688889-8.533333-11.377778-11.377778-14.222222-11.377778-2.844444 0-8.533333 2.844444-14.222222 11.377778-5.688889 8.533333-11.377778 14.222222-14.222223 22.755555-2.844444 8.533333-5.688889 19.911111-5.688889 31.288889v264.533334c0 8.533333 0 17.066667 2.844445 28.444444 2.844444 8.533333 8.533333 17.066667 14.222222 25.6 5.688889 5.688889 11.377778 11.377778 14.222222 11.377778 2.844444 0 8.533333-5.688889 14.222223-11.377778s11.377778-17.066667 11.377777-22.755556c2.844444-5.688889 2.844444-17.066667 2.844445-28.444444v-264.533333c0-14.222222-2.844444-25.6-5.688889-31.288889 5.688889-11.377778 0-17.066667-5.688889-25.6zM3106.133333 432.355556c-5.688889-5.688889-8.533333-5.688889-11.377777-5.688889-2.844444 0-5.688889 2.844444-14.222223 11.377777-5.688889 5.688889-11.377778 14.222222-14.222222 19.911112-2.844444 8.533333-5.688889 17.066667-5.688889 31.288888v159.288889l-22.755555-11.377777c-5.688889-2.844444-14.222222-2.844444-22.755556-2.844445l-22.755555 2.844445c-8.533333 0-17.066667-2.844444-25.6-5.688889-5.688889-5.688889-11.377778-11.377778-14.222223-17.066667-2.844444-5.688889-2.844444-17.066667-2.844444-34.133333v-91.022223c0-11.377778-2.844444-22.755556-5.688889-28.444444-2.844444-8.533333-8.533333-14.222222-14.222222-22.755556-5.688889-5.688889-11.377778-11.377778-14.222222-8.533333-2.844444 0-8.533333 2.844444-14.222223 11.377778-5.688889 8.533333-11.377778 14.222222-14.222222 22.755555-2.844444 8.533333-2.844444 17.066667-2.844444 28.444445v119.466667c0 14.222222 2.844444 28.444444 5.688889 36.977777 2.844444 11.377778 8.533333 19.911111 17.066666 28.444445 8.533333 8.533333 17.066667 14.222222 28.444445 19.911111 11.377778 5.688889 25.6 8.533333 42.666666 8.533333 14.222222 0 28.444444-2.844444 39.822223-8.533333 11.377778-5.688889 17.066667-8.533333 22.755555-14.222222 5.688889-5.688889 11.377778-11.377778 17.066667-19.911111l5.688889 17.066666c0 5.688889 5.688889 11.377778 14.222222 19.911111s14.222222 11.377778 17.066667 11.377778c5.688889 0 8.533333-2.844444 14.222222-11.377778 5.688889-8.533333 8.533333-17.066667 11.377778-22.755555 2.844444-5.688889 2.844444-11.377778 2.844444-17.066667v-162.133333c0-14.222222-2.844444-25.6-5.688889-34.133334 0-14.222222-5.688889-22.755556-11.377778-31.288888zM3404.8 509.155556c-5.688889-14.222222-11.377778-28.444444-22.755556-39.822223-11.377778-11.377778-19.911111-19.911111-31.288888-22.755555-11.377778-5.688889-22.755556-8.533333-34.133334-8.533334-11.377778 0-22.755556 0-34.133333 2.844445-11.377778 2.844444-19.911111 5.688889-25.6 11.377778l-19.911111 19.911111v-108.088889c0-8.533333-2.844444-17.066667-5.688889-28.444445s-8.533333-19.911111-14.222222-25.6c-5.688889-5.688889-8.533333-8.533333-14.222223-8.533333-2.844444 0-8.533333 2.844444-14.222222 11.377778-5.688889 5.688889-8.533333 14.222222-11.377778 25.6-2.844444 8.533333-2.844444 17.066667-2.844444 25.6v301.511111c0 5.688889 5.688889 14.222222 11.377778 25.6 5.688889 8.533333 11.377778 14.222222 14.222222 14.222222 2.844444 0 8.533333-2.844444 14.222222-8.533333 5.688889-5.688889 8.533333-11.377778 11.377778-17.066667 2.844444-5.688889 2.844444-11.377778 5.688889-19.911111l11.377778 14.222222c2.844444 5.688889 11.377778 11.377778 19.911111 14.222223 11.377778 5.688889 19.911111 5.688889 34.133333 5.688888 17.066667 0 34.133333-2.844444 48.355556-8.533333 14.222222-5.688889 25.6-17.066667 34.133333-28.444444 8.533333-11.377778 17.066667-25.6 19.911111-42.666667 5.688889-19.911111 8.533333-39.822222 5.688889-56.888889 8.533333-17.066667 5.688889-34.133333 0-48.355555z m-54.044444 79.644444c-2.844444 14.222222-8.533333 25.6-14.222223 34.133333s-17.066667 11.377778-31.288889 11.377778l-28.444444-2.844444c-8.533333 0-14.222222 0-17.066667 2.844444-5.688889 2.844444-11.377778 5.688889-17.066666 11.377778V483.555556l17.066666 11.377777c5.688889 2.844444 14.222222 5.688889 28.444445 5.688889h25.6c11.377778 2.844444 19.911111 5.688889 28.444444 11.377778 5.688889 5.688889 11.377778 17.066667 14.222222 31.288889-2.844444 17.066667-2.844444 31.288889-5.688888 45.511111z" fill="#FFFFFF" p-id="16283"></path></svg>